# xmcd CD database file
#
# Track frame offsets:
#	182
#	13562
#	39587
#	59945
#	75667
#	93077
#	113530
#	133335
#	161177
#	176285
#	192125
#	208470
#	226480
#
# Disc length: 3422 seconds
#
# Revision: 0
# Processed by: cddbd v1.5.2PL0 Copyright (c) Steve Scherf et al.
# Submitted via: CDex 1.51
#
DISCID=b10d5c0d
DTITLE=James Van Buren - Virus Called The Blues
DYEAR=1993
DGENRE=Blues
TTITLE0=Cheatin' and lying
TTITLE1=It was a dream
TTITLE2=Real good woman
TTITLE3=El chapultepec shuffle
TTITLE4=Mellow bossa nova
TTITLE5=One more mile
TTITLE6=Slown down blues
TTITLE7=Virus called the blues
TTITLE8=I ain't doin' too bad
TTITLE9=Lonesome blues
TTITLE10=Three handed woman
TTITLE11=Country down
TTITLE12=Tuesdays
EXTD=YEAR: 1993
EXTT0=
EXTT1=
EXTT2=
EXTT3=
EXTT4=
EXTT5=
EXTT6=
EXTT7=
EXTT8=
EXTT9=
EXTT10=
EXTT11=
EXTT12=
PLAYORDER=
